<svg width="24" height="24" viewBox="0 0 24 24" fill="none" xmlns="http://www.w3.org/2000/svg">
<path d="M18.2432 6.14615C17.0549 5.60559 15.8179 5.21246 14.532 4.99951C14.3692 5.29436 14.1902 5.67111 14.0599 5.98234C12.6927 5.7694 11.3091 5.7694 9.94184 5.98234C9.79535 5.63835 9.63258 5.31074 9.45353 4.99951C8.16764 5.21246 6.91431 5.60559 5.74236 6.16253C3.39846 9.68434 2.76365 13.1079 3.07292 16.4986C4.45647 17.5306 5.98651 18.3169 7.6305 18.8083C8.00487 18.3005 8.33041 17.7763 8.60712 17.2194C8.06998 17.0228 7.56539 16.7771 7.07708 16.4823C7.2073 16.384 7.32124 16.2857 7.45145 16.1874C10.3325 17.5634 13.6856 17.5634 16.5666 16.1874C16.6968 16.2857 16.8108 16.384 16.941 16.4823C16.4527 16.7771 15.9318 17.0228 15.3947 17.2194C15.6714 17.7763 15.9969 18.3005 16.3713 18.8083C18.0153 18.3005 19.5616 17.5306 20.9289 16.4986C21.287 12.5673 20.2778 9.16017 18.2432 6.14615ZM8.99778 14.4019C8.10254 14.4019 7.38634 13.5829 7.38634 12.5837C7.38634 11.5845 8.10254 10.7491 8.99778 10.7491C9.90929 10.7491 10.6255 11.5681 10.6255 12.5837C10.6092 13.5829 9.90929 14.4019 8.99778 14.4019ZM14.9877 14.4019C14.0925 14.4019 13.3763 13.5829 13.3763 12.5837C13.3763 11.5845 14.0925 10.7491 14.9877 10.7491C15.8993 10.7491 16.6154 11.5681 16.5992 12.5837C16.5829 13.5993 15.883 14.4019 14.9877 14.4019Z" fill="#9AA3BC"/>
</svg>
